<?xml version="1.0" encoding="UTF-8"?>
<svg id="Layer_2" data-name="Layer 2" xmlns="http://www.w3.org/2000/svg" viewBox="0 0 1587.48 1171.26">
  <defs>
    <style>
      .cls-1 {
        fill: #014da2;
      }
    </style>
  </defs>
  <g id="_레이어_1" data-name="레이어 1">
    <path class="cls-1" d="m1041.16,1095.74c-81.76,0-148.28-66.52-148.28-148.27s66.52-148.28,148.28-148.28,148.27,66.52,148.27,148.28-66.52,148.27-148.27,148.27m-493.97,0c-81.76,0-148.28-66.52-148.28-148.27s66.52-148.28,148.28-148.28c63.25,0,117.35,39.82,138.62,95.71l8.43,33.81c.78,6.15,1.23,12.4,1.23,18.76,0,81.76-66.52,148.27-148.28,148.27m493.97-372.07c-55.22,0-105.8,20.14-144.87,53.42-9.71-1.42-22.07-2.79-37.54-3.86-14.24-18.51-36.6-30.45-61.77-30.45s-46.88,11.6-61.15,29.66c-18.91,1-33.42,2.47-44.47,4.05-38.98-32.92-89.29-52.82-144.18-52.82-123.4,0-223.8,100.4-223.8,223.8s100.39,223.79,223.8,223.79c83.1,0,155.71-45.56,194.31-112.98,11.59-6.95,30.21-15.43,52.1-15.43,23.3,0,42.15,8.56,52.97,14.94,38.53,67.69,111.29,113.47,194.59,113.47,123.4,0,223.8-100.39,223.8-223.79s-100.4-223.8-223.8-223.8"/>
    <path class="cls-1" d="m1402.21,579.09h60.82v-91.93l44.45,91.93h80.01v-173.76h-60.81v95.57l-43.64-95.57h-80.82v173.76Zm-116.29-49.3c-25.46,0-40.41-15.76-40.41-37.58s14.95-37.58,40.41-37.58,40.41,15.76,40.41,37.58-14.95,37.58-40.41,37.58m0,53.34c59.6,0,102.64-34.35,102.64-90.92s-43.04-90.92-102.64-90.92-102.64,34.35-102.64,90.92,42.83,90.92,102.64,90.92m-179.49-4.04h63.44v-173.76h-63.44v173.76Zm-122.01,0h62.84v-119.81h50.71v-53.94h-164.87v53.94h51.32v119.81Zm-122.88,0h63.44v-173.76h-63.44v173.76Zm-125.16-54.75v-64.45h13.74c24.85,0,35.96,11.92,35.96,32.13s-11.11,32.33-35.96,32.33h-13.74Zm-61.02,54.75h67.28c66.07,0,105.47-33.13,105.47-87.08s-39.4-86.68-105.47-86.68h-67.28v173.76Zm-155.47,0h139v-50.71h-77.58v-14.75h70.11v-42.02h-70.11v-14.75h75.36v-51.52h-136.78v173.76Zm-112.34-93.14v-28.89h16.77c19.4,0,26.27,4.04,26.27,14.55,0,9.7-6.87,14.34-26.27,14.34h-16.77Zm0,50.91h19.19c53.95,0,83.65-22.83,83.65-64.45s-29.7-67.08-83.65-67.08h-80.01v173.76h60.81v-42.23Zm-128.42-48.69l51.93-82.84h-68.29l-21.21,33.94-21.62-33.94h-73.55l53.34,83.44-54.35,90.31h67.48l24.65-41.22,26.87,41.22h73.95l-59.2-90.92ZM0,579.09h139.01v-50.71H61.42v-14.75h70.11v-42.02H61.42v-14.75h75.36v-51.52H0v173.76Z"/>
    <path class="cls-1" d="m1224.81,378.44h139.01v-50.71h-77.59v-14.75h70.11v-42.02h-70.11v-14.75h75.36v-51.52h-136.78v173.76Zm-101.5-122.03c17.78,0,22.83,3.43,22.83,11.31,0,8.69-5.05,12.32-22.83,12.32h-17.78v-23.64h17.78Zm57.18,56.37c16.37-9.29,26.27-24.24,26.27-44.65,0-40.81-25.05-63.44-83.44-63.44h-77.79v173.76h60.01v-54.55h16.97l30.1,55.16,64.05-1.82-36.16-64.45Zm-241.08,69.7c52.33,0,87.89-24.45,87.89-81.83v-95.97h-62.23v95.57c0,18.79-9.29,27.88-25.66,27.88s-25.66-9.09-25.66-27.88v-95.57h-62.23v95.97c0,57.38,35.56,81.83,87.89,81.83m-209.64-4.04h62.83v-119.81h59.29v-53.94h-173.44v53.94h51.32v119.81Zm-159.51,0h130.12v-54.55h-66.67v-119.21h-63.44v173.76Zm-106.11,4.04c52.33,0,87.89-24.45,87.89-81.83v-95.97h-62.23v95.57c0,18.79-9.29,27.88-25.66,27.88s-25.66-9.09-25.66-27.88v-95.57h-62.23v95.97c0,57.38,35.56,81.83,87.89,81.83m-248.57-90.92c0,52.53,38.79,90.92,104.05,90.92,21.01,0,36.16-2.42,49.3-7.48l-9.29-50.51c-8.89,3.64-20.2,5.05-34.14,5.05-25.86,0-46.27-11.72-46.27-37.98s20.41-37.98,46.27-37.98c13.94,0,25.25,1.62,34.14,5.05l9.29-50.51c-13.13-4.85-28.29-7.48-49.3-7.48-65.26,0-104.05,38.39-104.05,90.92"/>
    <path class="cls-1" d="m1024.07,50.91l15.96,51.52h-31.52l15.56-51.52Zm105.06,126.88l-57.18-173.76h-96.98l-55.96,173.76h66.88l7.88-25.86h61.62l8.08,25.86h65.66Zm-280.78,0h63.44V4.04h-63.44v173.76Zm-169.09-7.07c19.6,6.47,45.46,11.11,73.95,11.11,57.78,0,82.23-24.24,82.23-58.79s-25.25-53.94-83.24-53.94c-8.89,0-13.54-1.82-13.54-7.68s4.85-8.08,13.54-8.08c26.06,0,44.25,3.23,61.82,7.48l7.88-51.32c-14.14-5.45-38.59-9.5-69.5-9.5-47.28,0-74.15,22.22-74.15,57.58s29.3,51.72,81.83,51.72c8.69,0,13.54,2.83,13.54,8.69s-4.65,8.89-13.94,8.89c-24.45,0-46.27-3.03-75.97-9.7l-4.44,53.54Zm-110.68-119.81l15.96,51.52h-31.52l15.56-51.52Zm105.06,126.88L616.47,4.04h-96.98l-55.97,173.76h66.88l7.88-25.86h61.62l8.08,25.86h65.66Z"/>
  </g>
</svg>